<svg width="665" height="622" viewBox="0 0 665 622" fill="none" xmlns="http://www.w3.org/2000/svg">
<g filter="url(#filter0_d_10_40)">
<path d="M23.4388 43.6235L39.0774 9.87702H81.0548L113.155 54.3236H169.125L273.657 78.193L377.365 80.6623L481.897 54.3236H555.152L565.852 28.808L601.244 8.23085H629.229L647.337 25.5156L643.222 68.316L620.175 96.3009L603.714 112.763L593.013 176.963L578.198 246.925L575.729 330.057L591.367 414.012L603.714 483.974L611.944 502.905L632.521 521.013L648.16 553.936L644.868 578.628L623.468 590.152L587.252 581.098L554.328 543.236L516.467 546.528L446.504 530.067L347.734 513.605L249.787 525.128L184.763 543.236L130.44 546.528L102.455 553.936L72.8239 586.859L29.2004 585.213L11.9156 553.936L25.085 517.72L52.2468 499.612L63.77 502.082V453.52L79.4086 387.673L87.6394 342.403V300.426L85.1702 258.449L62.1238 107.824L50.6006 97.9471L23.4388 43.6235Z" fill="white" stroke="black" style="fill:white;fill-opacity:1;stroke:black;stroke-opacity:1;" stroke-width="1.64617"/>
<path d="M59.6544 128.401L84.347 69.9622L126.324 52.6774L243.202 71.6084L337.034 80.6623L434.981 66.6699L513.997 50.2082L565.028 56.7929L601.244 93.8317L598.775 138.278L581.49 237.871L577.375 335.819L598.775 438.704L602.89 502.082L563.382 542.413L513.997 548.174L448.973 530.066L352.673 514.428L270.364 521.013L198.756 538.297L138.671 549.821L85.9931 530.066L64.5929 502.082L60.4775 456.812L76.9392 404.135L85.9931 319.357L88.4624 241.987L71.1776 182.725L59.6544 128.401Z" fill="#D1D1D1" stroke="black" style="fill:#D1D1D1;fill:color(display-p3 0.8208 0.8208 0.8208);fill-opacity:1;stroke:black;stroke-opacity:1;" stroke-width="1.64617"/>
<path fill-rule="evenodd" clip-rule="evenodd" d="M43.9871 1.94787C27.8119 7.98602 20.1062 20.487 19.9778 40.9045C19.8263 64.8348 33.2953 91.0254 53.9251 106.913C57.005 109.286 57.2964 110.498 56.0766 115.906C53.8032 125.982 57.1334 153.147 64.1214 181.54C77.2447 234.866 78.3164 243.53 78.2736 295.949C78.2308 349.155 77.4159 355.777 62.6514 422.74C56.5244 450.532 54.4782 463.2 54.4782 473.332V486.848L46.6556 490.812C42.3525 492.994 35.0205 498.808 30.3618 503.735C9.99374 525.27 2.24028 556.434 11.9774 577.62C17.2073 589.002 24.7401 595.013 36.9975 597.583C59.8216 602.372 90.735 587.298 105.6 564.134C111.506 554.927 115.93 553.052 125.193 555.828C139.946 560.248 164.388 557.038 206.364 545.169C240.133 535.62 256.052 532.171 280.826 529.035C312.514 525.026 338.042 524.198 363.958 526.342C396.249 529.012 417.964 533.056 456.967 543.661C498.478 554.949 518.306 558.304 530.198 556.048C534.985 555.14 542.319 554.417 546.495 554.44C553.771 554.48 554.331 554.835 559.786 562.875C572.725 581.943 588.109 592.798 608.735 597.413C627.345 601.578 645.917 591.841 653.651 573.862C658.966 561.507 657.646 549.755 648.979 532.265C642.676 519.543 632.743 508.208 615.371 493.912C611.117 490.411 610.883 489.481 610.883 476.002C610.883 466.931 609.413 455.16 606.822 443.478C599.898 412.277 589.886 360.08 587.681 343.688C585.068 324.268 585.048 274.555 587.646 251.502C590.059 230.079 594.409 207.642 602.959 172.486C607.318 154.564 609.868 139.823 610.45 129.152L611.336 112.98L618.105 108.797C636.648 97.3417 648.847 78.2379 654.344 52.0457C657.16 38.6229 657.17 37.3603 654.53 28.2207C652.385 20.7916 649.955 16.8391 643.98 11.0528C630.382 -2.10993 617.695 -3.2886 592.823 6.30363C577.14 12.3517 564.211 23.2329 555.99 37.2994L550.583 46.5541L521.883 46.6974C490.907 46.8537 488.698 47.1978 433.084 60.563C384.13 72.3249 351.768 75.395 310.458 72.1916C278.859 69.7421 260.638 66.7444 228.972 58.7901C183.515 47.3706 180.741 46.9443 149.133 46.5212L119.502 46.1245L115.386 38.2179C109.473 26.8577 93.3047 11.1236 81.9412 5.66986C70.1546 0.0136252 53.5349 -1.61608 43.9871 1.94787ZM70.5942 15.9304C82.8235 22.1859 102.378 42.8864 102.135 49.3197C102.089 50.5148 97.7494 53.5289 92.4932 56.0163C80.0662 61.8964 69.3184 71.4738 64.3897 81.0545C62.2234 85.2687 59.7114 89.1718 58.8076 89.7299C54.4403 92.4296 37.5078 66.402 33.1241 50.2514C29.3231 36.2475 33.9735 22.0509 44.5007 15.5123C50.3002 11.9121 63.137 12.1179 70.5942 15.9304ZM629.855 18.5067C638.806 23.7514 641.038 29.3253 640.271 44.5178C639.785 54.1232 638.521 58.8774 634.022 68.0185C628.861 78.5013 613.362 96.7623 609.626 96.7623C608.816 96.7623 605.737 91.9571 602.786 86.0819C597.003 74.5736 585.937 63.3582 573.143 56.0377C569.002 53.6689 565.373 51.5601 565.08 51.3527C563.778 50.4308 570.605 39.7686 576.799 33.049C592.074 16.477 615.456 10.0684 629.855 18.5067ZM556.305 63.0339C577.242 68.3165 591.421 86.9923 594.407 113.224C596.025 127.43 594.507 136.086 583.725 174.132C569.189 225.427 564.805 265.167 568.014 316.526C570.516 356.579 573.361 375.531 581.968 409.534C595.442 462.752 597.251 480.689 591.144 500.459C587.09 513.586 577.148 524.126 561.544 531.843C551.865 536.63 549.231 537.165 532.736 537.687C512.426 538.331 507.415 537.476 470.959 527.16C425.118 514.188 399.512 509.422 360.666 506.632C311.977 503.137 263.086 509.765 201.093 528.264C170.811 537.3 153.364 539.913 137.078 537.852C112.995 534.803 90.2445 523.905 81.6943 511.324C73.233 498.87 71.7531 492.579 71.8914 469.62C72.0099 450.192 72.7194 445.26 79.5905 416.119C94.5558 352.653 98.5939 319.841 96.6135 277.841C94.8241 239.944 91.5186 220.19 79.118 173.309C73.1885 150.895 72.1218 144.396 71.9638 129.686C71.7284 107.732 75.9031 94.1679 86.5357 82.3419C100.923 66.3411 119.232 60.9285 152.631 62.8018C174.561 64.0331 185.653 66.03 240.495 78.6297C290.326 90.0756 311.758 92.609 348.229 91.3612C380.044 90.2731 395.495 87.6326 432.274 77.0033C491.452 59.8996 527.699 55.8171 556.305 63.0339ZM63.4564 512.009C69.9801 526.62 80.5453 538.219 97.0547 548.898C98.8062 550.03 89.3852 561.746 81.9577 567.672C68.0508 578.767 58.7467 582.736 46.0646 582.986C36.3868 583.179 34.4657 582.693 30.5972 579.09C23.5006 572.477 20.9753 566.065 20.8749 554.397C20.758 540.902 26.3386 528.126 37.014 517.452C44.9238 509.541 53.8625 503.383 57.4495 503.373C58.6314 503.369 61.3345 507.256 63.4564 512.009ZM616.22 514.478C643.78 538.084 651.484 570.008 632.126 580.389C625.49 583.946 606.672 582.144 595.824 576.91C584.401 571.401 568.488 555.489 568.141 549.232C568.109 548.654 572.822 545.208 578.614 541.577C589.345 534.849 600.361 522.748 604.208 513.464C605.384 510.626 606.944 508.305 607.678 508.305C608.412 508.305 612.256 511.083 616.22 514.478Z" fill="black" style="fill:black;fill-opacity:1;"/>
<path d="M427.895 86.4382C484.92 69.9542 518.984 66.3117 545.454 72.9909C563.293 77.4925 576.001 93.3085 579.01 116.791L579.146 117.915C580.603 130.704 579.399 138.301 568.965 175.123C554.814 225.069 550.527 263.897 553.654 313.955C556.083 352.837 558.861 371.387 567.24 404.49H567.241C580.276 455.981 581.661 472.205 576.154 490.036C572.658 501.356 564.027 510.767 549.693 517.857C545.087 520.135 542.51 521.218 539.264 521.877C536.295 522.479 532.661 522.749 526.422 522.977L523.584 523.073C513.869 523.381 508.085 523.32 500.437 522.016C492.64 520.687 482.86 518.061 465.211 513.065C420.755 500.483 395.761 495.822 357.935 493.104C310.315 489.685 262.615 496.191 202.452 514.147C173.361 522.829 157.2 525.14 142.362 523.262C131.162 521.844 120.289 518.6 111.274 514.281C102.179 509.924 95.3481 504.654 91.7946 499.424C87.8448 493.61 85.752 489.566 84.5543 484.47C83.3947 479.537 83.0245 473.416 83.0377 463.533L83.0455 461.506C83.1025 452.173 83.302 446.523 84.275 439.76C85.2591 432.921 87.0437 424.877 90.3668 410.781C104.856 349.324 108.837 317.236 106.901 276.161C105.157 239.222 101.907 219.859 89.8834 174.397C84.2039 152.924 83.2623 147.018 83.1149 133.296C82.8945 112.74 86.7771 100.788 96.1246 90.3893C102.584 83.2044 109.828 78.468 119.246 75.6833C128.781 72.864 140.721 71.9933 156.625 72.8854C177.398 74.052 187.789 75.8996 240.736 88.0661C289.051 99.1654 310.11 101.678 345.777 100.458C376.883 99.3937 392.136 96.7746 427.895 86.4382Z" fill="url(#paint0_linear_10_40)" stroke="url(#paint1_linear_10_40)" style="" stroke-width="8.23085"/>
<path d="M123.46 231.709C124.438 235.62 126.393 282.551 126.393 282.551H319.007V113.403H306.296C295.541 113.403 261.321 106.559 261.321 106.559C261.321 106.559 203.634 92.8706 198.746 90.9151C193.857 88.9596 160.614 87.0042 157.681 87.0042C154.748 87.0042 129.327 88.9596 126.393 90.9151C123.46 92.8706 109.772 107.537 106.839 111.448C103.906 115.358 101.95 133.935 101.95 140.78C101.95 147.624 109.772 172.067 109.772 172.067C109.772 172.067 122.482 227.798 123.46 231.709Z" stroke="white" stroke-opacity="0.18" style="stroke:white;stroke-opacity:0.18;" stroke-width="7.82187"/>
<path d="M123.46 359.244C124.438 355.333 126.393 308.402 126.393 308.402H319.007V477.55H306.296C295.541 477.55 261.321 484.394 261.321 484.394C261.321 484.394 203.634 498.082 198.746 500.038C193.857 501.993 160.614 503.949 157.681 503.949C154.748 503.949 129.327 501.993 126.393 500.038C123.46 498.082 109.772 483.416 106.839 479.506C103.906 475.595 101.95 457.018 101.95 450.174C101.95 443.329 109.772 418.886 109.772 418.886C109.772 418.886 122.482 363.155 123.46 359.244Z" stroke="white" stroke-opacity="0.18" style="stroke:white;stroke-opacity:0.18;" stroke-width="7.82187"/>
<path d="M540.6 359.244C539.623 355.333 537.667 308.402 537.667 308.402H345.054V477.55H357.764C368.519 477.55 402.74 484.394 402.74 484.394C402.74 484.394 460.426 498.082 465.315 500.038C470.204 501.993 503.447 503.949 506.38 503.949C509.313 503.949 534.734 501.993 537.667 500.038C540.6 498.082 554.289 483.416 557.222 479.506C560.155 475.595 562.111 457.018 562.111 450.174C562.111 443.329 554.289 418.886 554.289 418.886C554.289 418.886 541.578 363.155 540.6 359.244Z" stroke="white" stroke-opacity="0.18" style="stroke:white;stroke-opacity:0.18;" stroke-width="7.82187"/>
<path d="M540.6 231.709C539.623 235.62 537.667 282.551 537.667 282.551H345.054V113.403H357.764C368.519 113.403 402.74 106.559 402.74 106.559C402.74 106.559 460.426 92.8706 465.315 90.9151C470.204 88.9596 503.447 87.0042 506.38 87.0042C509.313 87.0042 534.734 88.9596 537.667 90.9151C540.6 92.8706 554.289 107.537 557.222 111.448C560.155 115.358 562.111 133.935 562.111 140.78C562.111 147.624 554.289 172.067 554.289 172.067C554.289 172.067 541.578 227.798 540.6 231.709Z" stroke="white" stroke-opacity="0.18" style="stroke:white;stroke-opacity:0.18;" stroke-width="7.82187"/>
</g>
<defs>
<filter id="filter0_d_10_40" x="4.86374e-05" y="0" width="664.6" height="621.271" filterUnits="userSpaceOnUse" color-interpolation-filters="sRGB">
<feFlood flood-opacity="0" result="BackgroundImageFix"/>
<feColorMatrix in="SourceAlpha" type="matrix" values="0 0 0 0 0 0 0 0 0 0 0 0 0 0 0 0 0 0 127 0" result="hardAlpha"/>
<feOffset dy="15"/>
<feGaussianBlur stdDeviation="3.9"/>
<feComposite in2="hardAlpha" operator="out"/>
<feColorMatrix type="matrix" values="0 0 0 0 0 0 0 0 0 0 0 0 0 0 0 0 0 0 0.25 0"/>
<feBlend mode="normal" in2="BackgroundImageFix" result="effect1_dropShadow_10_40"/>
<feBlend mode="normal" in="SourceGraphic" in2="effect1_dropShadow_10_40" result="shape"/>
</filter>
<linearGradient id="paint0_linear_10_40" x1="579.844" y1="68.316" x2="88.4624" y2="527.597" gradientUnits="userSpaceOnUse">
<stop stop-color="#D1FEFF" style="stop-color:#D1FEFF;stop-color:color(display-p3 0.8210 0.9945 1.0000);stop-opacity:1;"/>
<stop offset="1" stop-color="#FFD6F6" style="stop-color:#FFD6F6;stop-color:color(display-p3 1.0000 0.8374 0.9653);stop-opacity:1;"/>
</linearGradient>
<linearGradient id="paint1_linear_10_40" x1="575.728" y1="66.6699" x2="87.6392" y2="539.944" gradientUnits="userSpaceOnUse">
<stop stop-color="#7CFBFF" style="stop-color:#7CFBFF;stop-color:color(display-p3 0.4872 0.9829 1.0000);stop-opacity:1;"/>
<stop offset="1" stop-color="#FF7CE3" style="stop-color:#FF7CE3;stop-color:color(display-p3 1.0000 0.4863 0.8887);stop-opacity:1;"/>
</linearGradient>
</defs>
</svg>
